<svg width="61" height="45" viewBox="0 0 61 45" fill="none" xmlns="http://www.w3.org/2000/svg">
<path d="M1.992 42V32.952H0.084V32.766H4.107V32.952H2.202V42H1.992ZM1.569 42V33.318H0.084V33.135H1.779V42H1.569ZM2.415 42V33.135H4.107V33.318H2.625V42H2.415ZM0.084 32.583V32.4H4.107V32.583H0.084ZM8.55759 42V36.513C8.55759 36.163 8.51659 35.867 8.43459 35.625C8.35259 35.383 8.20959 35.199 8.00559 35.073C7.80359 34.947 7.52159 34.884 7.15959 34.884C6.80359 34.884 6.49559 34.958 6.23559 35.106C5.97559 35.254 5.76859 35.462 5.61459 35.73H5.56959L5.66859 34.272V32.4H5.87859V34.026L5.72859 35.346H5.77359C5.94359 35.12 6.15159 34.957 6.39759 34.857C6.64559 34.755 6.91859 34.704 7.21659 34.704C7.62059 34.704 7.93459 34.773 8.15859 34.911C8.38259 35.047 8.53959 35.247 8.62959 35.511C8.72159 35.775 8.76759 36.098 8.76759 36.48V42H8.55759ZM4.83759 42V32.4H5.05059V42H4.83759ZM5.68359 42V36.693C5.68359 36.465 5.73859 36.257 5.84859 36.069C5.95859 35.879 6.11159 35.727 6.30759 35.613C6.50359 35.499 6.73059 35.442 6.98859 35.442C7.35659 35.442 7.60459 35.541 7.73259 35.739C7.86259 35.935 7.92759 36.214 7.92759 36.576V42H7.71759V36.585C7.71759 36.283 7.66659 36.047 7.56459 35.877C7.46259 35.707 7.26159 35.622 6.96159 35.622C6.76359 35.622 6.58459 35.668 6.42459 35.76C6.26459 35.85 6.13759 35.974 6.04359 36.132C5.95159 36.29 5.90559 36.472 5.90559 36.678L5.89659 42H5.68359ZM5.26059 42V32.4H5.47059V34.527L5.42559 36.201H5.47959C5.60759 35.845 5.81159 35.567 6.09159 35.367C6.37159 35.165 6.70759 35.065 7.09959 35.067C7.58959 35.071 7.91959 35.199 8.08959 35.451C8.26159 35.701 8.34759 36.058 8.34759 36.522V42H8.13459V36.543C8.13459 36.127 8.05759 35.807 7.90359 35.583C7.75159 35.359 7.46259 35.247 7.03659 35.247C6.71859 35.247 6.44259 35.317 6.20859 35.457C5.97659 35.597 5.79659 35.778 5.66859 36C5.54059 36.222 5.47659 36.457 5.47659 36.705V42H5.26059ZM10.0407 32.664V32.475H11.0997V32.664H10.0407ZM10.0407 33.426V33.237H11.0997V33.426H10.0407ZM10.0407 33.045V32.856H11.0997V33.045H10.0407ZM10.8867 42V34.8H11.0997V42H10.8867ZM10.0407 42V34.8H10.2537V42H10.0407ZM10.4637 42V34.8H10.6767V42H10.4637ZM16.1279 42V36.513C16.1279 36.339 16.1129 36.158 16.0829 35.97C16.0549 35.78 15.9939 35.603 15.8999 35.439C15.8079 35.275 15.6679 35.142 15.4799 35.04C15.2939 34.936 15.0439 34.884 14.7299 34.884C14.3759 34.884 14.0679 34.959 13.8059 35.109C13.5459 35.259 13.3389 35.466 13.1849 35.73H13.1369L13.2389 34.8H13.4489V34.902L13.3199 35.346H13.3649C13.5409 35.122 13.7469 34.959 13.9829 34.857C14.2209 34.755 14.4889 34.704 14.7869 34.704C15.0669 34.704 15.2999 34.742 15.4859 34.818C15.6719 34.892 15.8219 34.992 15.9359 35.118C16.0499 35.244 16.1359 35.385 16.1939 35.541C16.2519 35.697 16.2899 35.856 16.3079 36.018C16.3279 36.18 16.3379 36.334 16.3379 36.48V42H16.1279ZM12.4079 42V34.8H12.6209V42H12.4079ZM13.2539 42V36.693C13.2539 36.465 13.3089 36.257 13.4189 36.069C13.5289 35.879 13.6819 35.727 13.8779 35.613C14.0739 35.499 14.3009 35.442 14.5589 35.442C14.7669 35.442 14.9329 35.476 15.0569 35.544C15.1829 35.612 15.2769 35.702 15.3389 35.814C15.4029 35.924 15.4449 36.046 15.4649 36.18C15.4869 36.314 15.4979 36.446 15.4979 36.576V42H15.2879V36.585C15.2879 36.423 15.2699 36.269 15.2339 36.123C15.1999 35.977 15.1289 35.857 15.0209 35.763C14.9129 35.669 14.7499 35.622 14.5319 35.622C14.3339 35.622 14.1549 35.668 13.9949 35.76C13.8349 35.85 13.7079 35.974 13.6139 36.132C13.5219 36.29 13.4759 36.472 13.4759 36.678L13.4669 42H13.2539ZM12.8309 42V34.8H13.0409L12.9989 36.201H13.0499C13.1779 35.845 13.3819 35.567 13.6619 35.367C13.9419 35.165 14.2779 35.065 14.6699 35.067C15.1279 35.069 15.4499 35.197 15.6359 35.451C15.8239 35.703 15.9179 36.06 15.9179 36.522V42H15.7049V36.543C15.7049 36.121 15.6219 35.8 15.4559 35.58C15.2919 35.358 15.0089 35.247 14.6069 35.247C14.2889 35.247 14.0129 35.317 13.7789 35.457C13.5469 35.597 13.3669 35.778 13.2389 36C13.1109 36.222 13.0469 36.457 13.0469 36.705V42H12.8309ZM18.034 42V32.4H18.247V35.529L18.196 39.027H18.295L20.059 35.595L20.443 34.8H20.689L19.258 37.59L21.043 42H20.812L19.123 37.824L18.247 39.459V42H18.034ZM18.457 42V39.516L19.093 38.307L20.584 42H20.356L19.063 38.79L18.67 39.573V42H18.457ZM17.611 42V32.4H17.824V42H17.611ZM21.268 42L19.492 37.605L20.932 34.8H21.178L19.729 37.62L21.496 42H21.268ZM18.331 38.49L18.457 35.406V32.4H18.67V35.28L18.517 37.803H18.583L19.708 35.34L19.954 34.8H20.2L19.891 35.454L18.409 38.49H18.331ZM22.1579 32.664V32.475H23.2169V32.664H22.1579ZM22.1579 33.426V33.237H23.2169V33.426H22.1579ZM22.1579 33.045V32.856H23.2169V33.045H22.1579ZM23.0039 42V34.8H23.2169V42H23.0039ZM22.1579 42V34.8H22.3709V42H22.1579ZM22.5809 42V34.8H22.7939V42H22.5809ZM28.2451 42V36.513C28.2451 36.339 28.2301 36.158 28.2001 35.97C28.1721 35.78 28.1111 35.603 28.0171 35.439C27.9251 35.275 27.7851 35.142 27.5971 35.04C27.4111 34.936 27.1611 34.884 26.8471 34.884C26.4931 34.884 26.1851 34.959 25.9231 35.109C25.6631 35.259 25.4561 35.466 25.3021 35.73H25.2541L25.3561 34.8H25.5661V34.902L25.4371 35.346H25.4821C25.6581 35.122 25.8641 34.959 26.1001 34.857C26.3381 34.755 26.6061 34.704 26.9041 34.704C27.1841 34.704 27.4171 34.742 27.6031 34.818C27.7891 34.892 27.9391 34.992 28.0531 35.118C28.1671 35.244 28.2531 35.385 28.3111 35.541C28.3691 35.697 28.4071 35.856 28.4251 36.018C28.4451 36.18 28.4551 36.334 28.4551 36.48V42H28.2451ZM24.5251 42V34.8H24.7381V42H24.5251ZM25.3711 42V36.693C25.3711 36.465 25.4261 36.257 25.5361 36.069C25.6461 35.879 25.7991 35.727 25.9951 35.613C26.1911 35.499 26.4181 35.442 26.6761 35.442C26.8841 35.442 27.0501 35.476 27.1741 35.544C27.3001 35.612 27.3941 35.702 27.4561 35.814C27.5201 35.924 27.5621 36.046 27.5821 36.18C27.6041 36.314 27.6151 36.446 27.6151 36.576V42H27.4051V36.585C27.4051 36.423 27.3871 36.269 27.3511 36.123C27.3171 35.977 27.2461 35.857 27.1381 35.763C27.0301 35.669 26.8671 35.622 26.6491 35.622C26.4511 35.622 26.2721 35.668 26.1121 35.76C25.9521 35.85 25.8251 35.974 25.7311 36.132C25.6391 36.29 25.5931 36.472 25.5931 36.678L25.5841 42H25.3711ZM24.9481 42V34.8H25.1581L25.1161 36.201H25.1671C25.2951 35.845 25.4991 35.567 25.7791 35.367C26.0591 35.165 26.3951 35.065 26.7871 35.067C27.2451 35.069 27.5671 35.197 27.7531 35.451C27.9411 35.703 28.0351 36.06 28.0351 36.522V42H27.8221V36.543C27.8221 36.121 27.7391 35.8 27.5731 35.58C27.4091 35.358 27.1261 35.247 26.7241 35.247C26.4061 35.247 26.1301 35.317 25.8961 35.457C25.6641 35.597 25.4841 35.778 25.3561 36C25.2281 36.222 25.1641 36.457 25.1641 36.705V42H24.9481ZM32.296 42V32.4H34.195C34.573 32.4 34.903 32.445 35.185 32.535C35.469 32.625 35.692 32.793 35.854 33.039C36.016 33.283 36.101 33.638 36.109 34.104C36.121 34.77 36.129 35.433 36.133 36.093C36.137 36.753 36.137 37.428 36.133 38.118C36.131 38.806 36.123 39.53 36.109 40.29C36.101 40.756 36.019 41.112 35.863 41.358C35.707 41.604 35.492 41.773 35.218 41.865C34.944 41.955 34.624 42 34.258 42H32.296ZM32.506 41.817H34.258C34.496 41.817 34.714 41.796 34.912 41.754C35.11 41.71 35.281 41.633 35.425 41.523C35.571 41.411 35.684 41.255 35.764 41.055C35.846 40.855 35.89 40.598 35.896 40.284C35.906 39.668 35.913 39.022 35.917 38.346C35.923 37.668 35.924 36.973 35.92 36.261C35.918 35.547 35.91 34.83 35.896 34.11C35.888 33.706 35.816 33.394 35.68 33.174C35.546 32.952 35.353 32.798 35.101 32.712C34.851 32.626 34.549 32.583 34.195 32.583H32.506V41.817ZM32.719 41.631V32.766H34.195C34.513 32.766 34.781 32.805 34.999 32.883C35.217 32.961 35.384 33.097 35.5 33.291C35.618 33.485 35.68 33.758 35.686 34.11C35.694 34.618 35.7 35.122 35.704 35.622C35.71 36.12 35.713 36.622 35.713 37.128C35.713 37.632 35.711 38.145 35.707 38.667C35.703 39.189 35.696 39.728 35.686 40.284C35.68 40.654 35.616 40.936 35.494 41.13C35.372 41.324 35.204 41.456 34.99 41.526C34.778 41.596 34.534 41.631 34.258 41.631H32.719ZM32.929 41.448H34.258C34.662 41.448 34.963 41.362 35.161 41.19C35.361 41.018 35.465 40.715 35.473 40.281C35.485 39.607 35.493 38.932 35.497 38.256C35.501 37.58 35.501 36.898 35.497 36.21C35.495 35.522 35.487 34.823 35.473 34.113C35.463 33.647 35.344 33.337 35.116 33.183C34.89 33.029 34.583 32.952 34.195 32.952H32.929V41.448ZM33.142 41.265V33.135H34.195C34.397 33.135 34.577 33.16 34.735 33.21C34.893 33.258 35.018 33.352 35.11 33.492C35.204 33.632 35.254 33.841 35.26 34.119C35.274 34.823 35.283 35.498 35.287 36.144C35.293 36.79 35.293 37.447 35.287 38.115C35.283 38.783 35.274 39.503 35.26 40.275C35.252 40.683 35.156 40.95 34.972 41.076C34.788 41.202 34.55 41.265 34.258 41.265H33.142ZM33.352 41.082H34.258C34.396 41.082 34.524 41.063 34.642 41.025C34.76 40.987 34.856 40.909 34.93 40.791C35.006 40.673 35.046 40.495 35.05 40.257C35.062 39.623 35.07 38.958 35.074 38.262C35.078 37.566 35.078 36.867 35.074 36.165C35.07 35.463 35.062 34.788 35.05 34.14C35.044 33.802 34.962 33.581 34.804 33.477C34.648 33.371 34.445 33.318 34.195 33.318H33.352V41.082ZM37.827 42V34.8H38.037L38.04 35.37L37.986 36.201H38.046C38.17 35.851 38.373 35.587 38.655 35.409C38.937 35.229 39.27 35.139 39.654 35.139C39.756 35.139 39.865 35.142 39.981 35.148C40.099 35.152 40.187 35.156 40.245 35.16V35.34C40.171 35.336 40.07 35.333 39.942 35.331C39.814 35.327 39.701 35.325 39.603 35.325C39.281 35.325 39.003 35.391 38.769 35.523C38.537 35.655 38.359 35.827 38.235 36.039C38.111 36.249 38.049 36.472 38.049 36.708V42H37.827ZM37.404 42V34.8H37.617V42H37.404ZM38.25 42V36.693C38.25 36.349 38.373 36.068 38.619 35.85C38.865 35.632 39.168 35.523 39.528 35.523C39.648 35.523 39.772 35.524 39.9 35.526C40.028 35.526 40.143 35.527 40.245 35.529V35.712C40.145 35.708 40.03 35.706 39.9 35.706C39.77 35.706 39.645 35.706 39.525 35.706C39.235 35.706 38.987 35.79 38.781 35.958C38.575 36.126 38.472 36.366 38.472 36.678V42H38.25ZM38.136 35.73L38.25 35.049V34.8H38.46L38.463 34.905L38.322 35.346H38.361C38.507 35.144 38.709 34.998 38.967 34.908C39.225 34.818 39.487 34.773 39.753 34.773C39.819 34.773 39.898 34.775 39.99 34.779C40.082 34.783 40.167 34.788 40.245 34.794V34.977C40.181 34.971 40.104 34.966 40.014 34.962C39.926 34.958 39.838 34.956 39.75 34.956C39.398 34.956 39.086 35.02 38.814 35.148C38.544 35.274 38.333 35.468 38.181 35.73H38.136ZM44.426 42V36.558C44.426 36.002 44.314 35.583 44.09 35.301C43.868 35.017 43.46 34.875 42.866 34.875C42.342 34.875 41.941 34.979 41.663 35.187C41.387 35.395 41.237 35.771 41.213 36.315C41.207 36.491 41.204 36.662 41.204 36.828C41.206 36.992 41.212 37.161 41.222 37.335H41.015C41.003 37.143 40.996 36.968 40.994 36.81C40.992 36.652 40.995 36.484 41.003 36.306C41.027 35.736 41.185 35.327 41.477 35.079C41.769 34.831 42.232 34.707 42.866 34.707C43.324 34.707 43.681 34.778 43.937 34.92C44.195 35.06 44.376 35.268 44.48 35.544C44.586 35.818 44.639 36.156 44.639 36.558V42H44.426ZM42.482 41.589C42.796 41.589 43.066 41.515 43.292 41.367C43.518 41.219 43.692 41.03 43.814 40.8C43.938 40.568 44 40.329 44 40.083V38.079C43.75 38.145 43.492 38.223 43.226 38.313C42.962 38.401 42.741 38.487 42.563 38.571C42.213 38.739 41.951 38.938 41.777 39.168C41.605 39.398 41.505 39.706 41.477 40.092C41.471 40.186 41.469 40.271 41.471 40.347C41.473 40.423 41.477 40.504 41.483 40.59C41.517 40.898 41.619 41.142 41.789 41.322C41.959 41.5 42.19 41.589 42.482 41.589ZM42.524 41.409C42.278 41.409 42.083 41.331 41.939 41.175C41.797 41.019 41.715 40.816 41.693 40.566C41.687 40.494 41.683 40.42 41.681 40.344C41.681 40.266 41.683 40.189 41.687 40.113C41.707 39.753 41.795 39.471 41.951 39.267C42.107 39.061 42.336 38.884 42.638 38.736C42.834 38.642 43.022 38.561 43.202 38.493C43.382 38.425 43.577 38.361 43.787 38.301V40.098C43.787 40.326 43.735 40.54 43.631 40.74C43.527 40.94 43.381 41.102 43.193 41.226C43.005 41.348 42.782 41.409 42.524 41.409ZM42.548 41.244C42.746 41.244 42.922 41.193 43.076 41.091C43.23 40.987 43.351 40.849 43.439 40.677C43.529 40.505 43.574 40.317 43.574 40.113V38.529C43.43 38.581 43.289 38.637 43.151 38.697C43.015 38.755 42.871 38.822 42.719 38.898C42.435 39.042 42.23 39.206 42.104 39.39C41.98 39.574 41.911 39.818 41.897 40.122C41.895 40.198 41.894 40.272 41.894 40.344C41.896 40.414 41.9 40.483 41.906 40.551C41.922 40.749 41.985 40.914 42.095 41.046C42.207 41.178 42.358 41.244 42.548 41.244ZM42.326 42.09C41.904 42.09 41.562 41.964 41.3 41.712C41.04 41.46 40.89 41.1 40.85 40.632C40.842 40.532 40.838 40.434 40.838 40.338C40.838 40.242 40.84 40.141 40.844 40.035C40.872 39.573 41 39.19 41.228 38.886C41.458 38.58 41.826 38.311 42.332 38.079C42.452 38.023 42.573 37.97 42.695 37.92C42.819 37.87 42.953 37.82 43.097 37.77C43.241 37.718 43.402 37.666 43.58 37.614V36.558C43.58 36.248 43.529 36.003 43.427 35.823C43.327 35.643 43.14 35.553 42.866 35.553C42.594 35.553 42.394 35.621 42.266 35.757C42.138 35.891 42.068 36.094 42.056 36.366C42.052 36.464 42.05 36.603 42.05 36.783C42.05 36.963 42.054 37.147 42.062 37.335H41.852C41.844 37.155 41.84 36.976 41.84 36.798C41.84 36.62 41.842 36.471 41.846 36.351C41.86 36.009 41.95 35.763 42.116 35.613C42.284 35.461 42.534 35.385 42.866 35.385C43.228 35.385 43.473 35.491 43.601 35.703C43.729 35.913 43.793 36.198 43.793 36.558V37.758C43.541 37.834 43.293 37.914 43.049 37.998C42.805 38.082 42.592 38.163 42.41 38.241C41.974 38.435 41.644 38.678 41.42 38.97C41.196 39.26 41.074 39.62 41.054 40.05C41.052 40.144 41.051 40.238 41.051 40.332C41.051 40.426 41.055 40.521 41.063 40.617C41.095 41.021 41.225 41.34 41.453 41.574C41.683 41.806 41.991 41.922 42.377 41.922C42.735 41.922 43.033 41.846 43.271 41.694C43.511 41.54 43.708 41.33 43.862 41.064H43.913L43.808 41.742V42H43.601L43.598 41.886L43.73 41.445H43.688C43.52 41.671 43.325 41.835 43.103 41.937C42.883 42.039 42.624 42.09 42.326 42.09ZM44.003 42V41.421L44.051 40.59H44.003C43.875 40.946 43.677 41.23 43.409 41.442C43.141 41.652 42.813 41.756 42.425 41.754C42.099 41.754 41.833 41.653 41.627 41.451C41.421 41.247 41.303 40.965 41.273 40.605C41.267 40.513 41.263 40.424 41.261 40.338C41.261 40.252 41.263 40.161 41.267 40.065C41.289 39.645 41.396 39.309 41.588 39.057C41.78 38.805 42.08 38.588 42.488 38.406C42.61 38.352 42.756 38.295 42.926 38.235C43.096 38.173 43.274 38.113 43.46 38.055C43.648 37.997 43.83 37.945 44.006 37.899V36.558C44.006 36.138 43.927 35.809 43.769 35.571C43.611 35.333 43.31 35.214 42.866 35.214C42.46 35.214 42.157 35.301 41.957 35.475C41.759 35.649 41.651 35.94 41.633 36.348C41.629 36.466 41.627 36.615 41.627 36.795C41.627 36.973 41.633 37.153 41.645 37.335H41.432C41.422 37.163 41.416 36.987 41.414 36.807C41.414 36.627 41.417 36.473 41.423 36.345C41.441 35.885 41.563 35.553 41.789 35.349C42.015 35.145 42.374 35.043 42.866 35.043C43.378 35.043 43.731 35.172 43.925 35.43C44.119 35.686 44.216 36.062 44.216 36.558V42H44.003ZM47.6788 44.073C47.0368 44.073 46.5528 43.97 46.2268 43.764C45.9008 43.558 45.7188 43.243 45.6808 42.819C45.6768 42.757 45.6758 42.695 45.6778 42.633C45.6818 42.571 45.6878 42.509 45.6958 42.447C45.7198 42.223 45.7918 42.041 45.9118 41.901C46.0338 41.761 46.2058 41.66 46.4278 41.598V41.553C46.2558 41.503 46.1258 41.429 46.0378 41.331C45.9518 41.233 45.8998 41.097 45.8818 40.923C45.8798 40.881 45.8788 40.835 45.8788 40.785C45.8788 40.733 45.8798 40.685 45.8818 40.641C45.8958 40.447 45.9458 40.287 46.0318 40.161C46.1198 40.035 46.2758 39.94 46.4998 39.876V39.831C46.3118 39.765 46.1488 39.632 46.0108 39.432C45.8728 39.232 45.7948 38.967 45.7768 38.637C45.7668 38.457 45.7598 38.277 45.7558 38.097C45.7518 37.915 45.7498 37.731 45.7498 37.545C45.7498 37.357 45.7518 37.166 45.7558 36.972C45.7598 36.776 45.7658 36.575 45.7738 36.369C45.7998 35.775 45.9638 35.35 46.2658 35.094C46.5698 34.836 47.0378 34.707 47.6698 34.707C48.0858 34.707 48.3998 34.766 48.6118 34.884C48.8238 35 48.9698 35.17 49.0498 35.394H49.0948C49.1768 35.248 49.2888 35.131 49.4308 35.043C49.5748 34.955 49.7268 34.892 49.8868 34.854C50.0468 34.814 50.1898 34.796 50.3158 34.8V34.974C49.9738 34.97 49.6998 35.032 49.4938 35.16C49.2898 35.288 49.1508 35.454 49.0768 35.658H49.0258C48.9598 35.396 48.8238 35.2 48.6178 35.07C48.4118 34.94 48.0958 34.875 47.6698 34.875C47.1138 34.875 46.6988 34.991 46.4248 35.223C46.1528 35.453 46.0058 35.834 45.9838 36.366C45.9738 36.65 45.9658 36.916 45.9598 37.164C45.9558 37.41 45.9558 37.651 45.9598 37.887C45.9638 38.123 45.9718 38.368 45.9838 38.622C46.0038 38.984 46.0858 39.262 46.2298 39.456C46.3758 39.648 46.5638 39.775 46.7938 39.837V39.882C46.5358 39.944 46.3528 40.034 46.2448 40.152C46.1368 40.27 46.0748 40.432 46.0588 40.638C46.0568 40.688 46.0558 40.736 46.0558 40.782C46.0558 40.828 46.0578 40.876 46.0618 40.926C46.0758 41.098 46.1268 41.229 46.2148 41.319C46.3048 41.407 46.4658 41.484 46.6978 41.55V41.598C46.4258 41.662 46.2278 41.76 46.1038 41.892C45.9818 42.024 45.9048 42.209 45.8728 42.447C45.8628 42.513 45.8548 42.571 45.8488 42.621C45.8428 42.673 45.8438 42.738 45.8518 42.816C45.8918 43.194 46.0528 43.472 46.3348 43.65C46.6188 43.83 47.0668 43.92 47.6788 43.92C48.3108 43.92 48.7718 43.829 49.0618 43.647C49.3518 43.465 49.5178 43.174 49.5598 42.774C49.5698 42.702 49.5738 42.637 49.5718 42.579C49.5718 42.521 49.5668 42.456 49.5568 42.384C49.5128 42.03 49.3478 41.772 49.0618 41.61C48.7758 41.448 48.3268 41.358 47.7148 41.34C47.4508 41.332 47.2408 41.313 47.0848 41.283C46.9288 41.253 46.8128 41.209 46.7368 41.151C46.6628 41.093 46.6148 41.019 46.5928 40.929C46.5828 40.891 46.5758 40.841 46.5718 40.779C46.5698 40.715 46.5718 40.667 46.5778 40.635C46.6138 40.431 46.7118 40.293 46.8718 40.221C47.0318 40.149 47.2988 40.115 47.6728 40.119C48.2488 40.123 48.6628 40 48.9148 39.75C49.1668 39.498 49.3068 39.12 49.3348 38.616C49.3468 38.346 49.3538 38.101 49.3558 37.881C49.3598 37.661 49.3598 37.433 49.3558 37.197C49.3518 36.959 49.3448 36.68 49.3348 36.36C49.3268 36.086 49.4068 35.866 49.5748 35.7C49.7428 35.532 49.9898 35.453 50.3158 35.463V35.634C50.0358 35.628 49.8318 35.696 49.7038 35.838C49.5778 35.978 49.5188 36.162 49.5268 36.39C49.5348 36.654 49.5408 36.904 49.5448 37.14C49.5508 37.374 49.5528 37.611 49.5508 37.851C49.5508 38.089 49.5438 38.347 49.5298 38.625C49.4978 39.215 49.3348 39.64 49.0408 39.9C48.7488 40.158 48.2918 40.287 47.6698 40.287C47.4598 40.287 47.2908 40.297 47.1628 40.317C47.0368 40.337 46.9428 40.375 46.8808 40.431C46.8188 40.485 46.7808 40.564 46.7668 40.668C46.7648 40.678 46.7638 40.708 46.7638 40.758C46.7638 40.806 46.7668 40.843 46.7728 40.869C46.7908 40.943 46.8308 41.002 46.8928 41.046C46.9548 41.088 47.0508 41.118 47.1808 41.136C47.3128 41.154 47.4918 41.167 47.7178 41.175C48.3878 41.193 48.8848 41.299 49.2088 41.493C49.5328 41.687 49.7118 41.985 49.7458 42.387C49.7518 42.457 49.7548 42.524 49.7548 42.588C49.7568 42.652 49.7548 42.715 49.7488 42.777C49.7088 43.219 49.5238 43.545 49.1938 43.755C48.8658 43.967 48.3608 44.073 47.6788 44.073ZM47.6788 43.611C48.0488 43.611 48.3428 43.577 48.5608 43.509C48.7788 43.443 48.9378 43.348 49.0378 43.224C49.1378 43.102 49.1928 42.958 49.2028 42.792C49.2088 42.708 49.2108 42.637 49.2088 42.579C49.2088 42.521 49.2038 42.456 49.1938 42.384C49.1758 42.226 49.1148 42.095 49.0108 41.991C48.9068 41.885 48.7488 41.802 48.5368 41.742C48.3268 41.682 48.0508 41.644 47.7088 41.628C47.2188 41.606 46.8578 41.66 46.6258 41.79C46.3938 41.92 46.2518 42.141 46.1998 42.453C46.1898 42.511 46.1828 42.568 46.1788 42.624C46.1748 42.682 46.1768 42.75 46.1848 42.828C46.2188 43.11 46.3548 43.311 46.5928 43.431C46.8308 43.551 47.1928 43.611 47.6788 43.611ZM47.6788 43.464C47.2308 43.464 46.9038 43.413 46.6978 43.311C46.4918 43.211 46.3758 43.047 46.3498 42.819C46.3418 42.757 46.3388 42.697 46.3408 42.639C46.3448 42.583 46.3538 42.519 46.3678 42.447C46.4118 42.169 46.5408 41.983 46.7548 41.889C46.9688 41.793 47.2938 41.752 47.7298 41.766C48.0118 41.774 48.2448 41.801 48.4288 41.847C48.6128 41.893 48.7528 41.96 48.8488 42.048C48.9448 42.136 49.0028 42.248 49.0228 42.384C49.0348 42.472 49.0408 42.543 49.0408 42.597C49.0408 42.653 49.0358 42.714 49.0258 42.78C48.9978 43.022 48.8788 43.196 48.6688 43.302C48.4608 43.41 48.1308 43.464 47.6788 43.464ZM47.6788 43.305C47.9308 43.305 48.1378 43.288 48.2998 43.254C48.4618 43.22 48.5848 43.164 48.6688 43.086C48.7548 43.008 48.8078 42.905 48.8278 42.777C48.8398 42.711 48.8458 42.646 48.8458 42.582C48.8478 42.518 48.8398 42.452 48.8218 42.384C48.8058 42.288 48.7578 42.208 48.6778 42.144C48.5998 42.08 48.4818 42.031 48.3238 41.997C48.1678 41.961 47.9638 41.937 47.7118 41.925C47.3238 41.907 47.0408 41.942 46.8628 42.03C46.6848 42.118 46.5798 42.257 46.5478 42.447C46.5298 42.507 46.5198 42.57 46.5178 42.636C46.5178 42.704 46.5228 42.765 46.5328 42.819C46.5588 42.985 46.6598 43.107 46.8358 43.185C47.0138 43.265 47.2948 43.305 47.6788 43.305ZM47.6788 43.773C47.1108 43.773 46.6988 43.698 46.4428 43.548C46.1868 43.398 46.0428 43.154 46.0108 42.816C46.0048 42.744 46.0028 42.681 46.0048 42.627C46.0088 42.573 46.0148 42.513 46.0228 42.447C46.0528 42.193 46.1438 41.999 46.2958 41.865C46.4478 41.731 46.6878 41.64 47.0158 41.592V41.547C46.7578 41.513 46.5668 41.448 46.4428 41.352C46.3188 41.256 46.2438 41.114 46.2178 40.926C46.2118 40.876 46.2088 40.828 46.2088 40.782C46.2088 40.734 46.2098 40.686 46.2118 40.638C46.2258 40.416 46.3038 40.246 46.4458 40.128C46.5878 40.008 46.7998 39.925 47.0818 39.879V39.84C46.8118 39.78 46.6008 39.653 46.4488 39.459C46.2968 39.265 46.2118 38.98 46.1938 38.604C46.1818 38.382 46.1738 38.153 46.1698 37.917C46.1678 37.681 46.1688 37.436 46.1728 37.182C46.1788 36.926 46.1858 36.659 46.1938 36.381C46.2138 35.903 46.3428 35.561 46.5808 35.355C46.8208 35.147 47.1838 35.043 47.6698 35.043C48.0898 35.043 48.4028 35.121 48.6088 35.277C48.8148 35.431 48.9428 35.684 48.9928 36.036H49.0378C49.0938 35.834 49.1738 35.666 49.2778 35.532C49.3818 35.398 49.5188 35.297 49.6888 35.229C49.8588 35.161 50.0678 35.126 50.3158 35.124V35.298C49.9318 35.29 49.6358 35.385 49.4278 35.583C49.2198 35.781 49.1228 36.039 49.1368 36.357C49.1468 36.619 49.1528 36.88 49.1548 37.14C49.1568 37.398 49.1558 37.65 49.1518 37.896C49.1498 38.14 49.1438 38.374 49.1338 38.598C49.1078 39.074 48.9768 39.42 48.7408 39.636C48.5068 39.852 48.1488 39.958 47.6668 39.954C47.4448 39.952 47.2418 39.972 47.0578 40.014C46.8758 40.054 46.7278 40.121 46.6138 40.215C46.5018 40.309 46.4348 40.438 46.4128 40.602C46.4048 40.654 46.4018 40.711 46.4038 40.773C46.4058 40.835 46.4088 40.883 46.4128 40.917C46.4468 41.133 46.5688 41.276 46.7788 41.346C46.9908 41.416 47.3018 41.457 47.7118 41.469C48.0718 41.479 48.3718 41.517 48.6118 41.583C48.8518 41.649 49.0358 41.747 49.1638 41.877C49.2918 42.007 49.3688 42.175 49.3948 42.381C49.4008 42.443 49.4048 42.507 49.4068 42.573C49.4088 42.639 49.4058 42.707 49.3978 42.777C49.3638 43.143 49.2028 43.4 48.9148 43.548C48.6288 43.698 48.2168 43.773 47.6788 43.773ZM47.6698 39.768C48.0738 39.768 48.3788 39.677 48.5848 39.495C48.7928 39.311 48.9068 39.012 48.9268 38.598C48.9408 38.356 48.9488 38.118 48.9508 37.884C48.9528 37.648 48.9518 37.407 48.9478 37.161C48.9438 36.913 48.9368 36.65 48.9268 36.372C48.9108 35.952 48.7978 35.654 48.5878 35.478C48.3778 35.302 48.0718 35.214 47.6698 35.214C47.2318 35.214 46.9148 35.31 46.7188 35.502C46.5248 35.694 46.4198 35.989 46.4038 36.387C46.3918 36.809 46.3848 37.189 46.3828 37.527C46.3828 37.863 46.3898 38.227 46.4038 38.619C46.4218 39.017 46.5358 39.308 46.7458 39.492C46.9558 39.676 47.2638 39.768 47.6698 39.768ZM47.6698 39.6C47.3178 39.6 47.0568 39.519 46.8868 39.357C46.7188 39.193 46.6278 38.938 46.6138 38.592C46.6018 38.236 46.5958 37.883 46.5958 37.533C46.5978 37.181 46.6038 36.803 46.6138 36.399C46.6278 36.037 46.7208 35.778 46.8928 35.622C47.0648 35.464 47.3238 35.385 47.6698 35.385C48.0098 35.385 48.2648 35.463 48.4348 35.619C48.6068 35.773 48.6998 36.025 48.7138 36.375C48.7258 36.655 48.7328 36.919 48.7348 37.167C48.7388 37.413 48.7388 37.652 48.7348 37.884C48.7328 38.116 48.7268 38.35 48.7168 38.586C48.6988 38.942 48.6028 39.2 48.4288 39.36C48.2568 39.52 48.0038 39.6 47.6698 39.6ZM47.6698 39.429C47.9278 39.429 48.1278 39.363 48.2698 39.231C48.4118 39.097 48.4898 38.877 48.5038 38.571C48.5158 38.353 48.5228 38.13 48.5248 37.902C48.5288 37.674 48.5288 37.435 48.5248 37.185C48.5208 36.933 48.5138 36.665 48.5038 36.381C48.4918 36.079 48.4128 35.866 48.2668 35.742C48.1228 35.616 47.9238 35.553 47.6698 35.553C47.4038 35.553 47.1988 35.618 47.0548 35.748C46.9108 35.876 46.8338 36.096 46.8238 36.408C46.8118 36.784 46.8048 37.149 46.8028 37.503C46.8028 37.857 46.8098 38.217 46.8238 38.583C46.8378 38.881 46.9148 39.097 47.0548 39.231C47.1948 39.363 47.3998 39.429 47.6698 39.429ZM52.7809 42.093C52.1189 42.093 51.6409 41.954 51.3469 41.676C51.0549 41.396 50.8939 40.942 50.8639 40.314C50.8459 39.902 50.8329 39.49 50.8249 39.078C50.8169 38.666 50.8159 38.246 50.8219 37.818C50.8279 37.388 50.8419 36.944 50.8639 36.486C50.8959 35.832 51.0659 35.372 51.3739 35.106C51.6819 34.84 52.1509 34.707 52.7809 34.707C53.4249 34.707 53.8969 34.844 54.1969 35.118C54.4969 35.39 54.6619 35.847 54.6919 36.489C54.7199 37.137 54.7339 37.783 54.7339 38.427C54.7359 39.069 54.7219 39.698 54.6919 40.314C54.6579 40.968 54.4869 41.428 54.1789 41.694C53.8729 41.96 53.4069 42.093 52.7809 42.093ZM52.7809 41.925C53.3509 41.925 53.7689 41.801 54.0349 41.553C54.3029 41.303 54.4509 40.886 54.4789 40.302C54.5089 39.72 54.5239 39.115 54.5239 38.487C54.5259 37.859 54.5109 37.196 54.4789 36.498C54.4529 35.914 54.3059 35.498 54.0379 35.25C53.7719 35 53.3529 34.875 52.7809 34.875C52.2069 34.875 51.7859 35 51.5179 35.25C51.2519 35.498 51.1039 35.914 51.0739 36.498C51.0519 36.974 51.0379 37.425 51.0319 37.851C51.0259 38.277 51.0269 38.69 51.0349 39.09C51.0429 39.49 51.0559 39.895 51.0739 40.305C51.1019 40.883 51.2479 41.298 51.5119 41.55C51.7779 41.8 52.2009 41.925 52.7809 41.925ZM52.7809 41.754C52.2649 41.754 51.8929 41.639 51.6649 41.409C51.4369 41.179 51.3099 40.806 51.2839 40.29C51.2659 39.87 51.2529 39.458 51.2449 39.054C51.2369 38.65 51.2359 38.24 51.2419 37.824C51.2499 37.406 51.2649 36.968 51.2869 36.51C51.3129 35.978 51.4439 35.601 51.6799 35.379C51.9159 35.155 52.2829 35.043 52.7809 35.043C53.2769 35.043 53.6429 35.154 53.8789 35.376C54.1149 35.598 54.2449 35.975 54.2689 36.507C54.2889 36.945 54.3019 37.371 54.3079 37.785C54.3159 38.199 54.3169 38.612 54.3109 39.024C54.3049 39.436 54.2909 39.858 54.2689 40.29C54.2429 40.818 54.1129 41.194 53.8789 41.418C53.6449 41.642 53.2789 41.754 52.7809 41.754ZM52.7809 41.583C53.2129 41.583 53.5279 41.482 53.7259 41.28C53.9239 41.078 54.0349 40.743 54.0589 40.275C54.0869 39.669 54.1009 39.068 54.1009 38.472C54.1029 37.876 54.0889 37.226 54.0589 36.522C54.0369 36.04 53.9229 35.702 53.7169 35.508C53.5109 35.312 53.1989 35.214 52.7809 35.214C52.3389 35.214 52.0199 35.317 51.8239 35.523C51.6299 35.729 51.5209 36.063 51.4969 36.525C51.4769 36.955 51.4629 37.372 51.4549 37.776C51.4489 38.18 51.4489 38.587 51.4549 38.997C51.4609 39.407 51.4749 39.836 51.4969 40.284C51.5209 40.754 51.6329 41.088 51.8329 41.286C52.0349 41.484 52.3509 41.583 52.7809 41.583ZM52.7809 41.415C52.4189 41.415 52.1539 41.327 51.9859 41.151C51.8199 40.975 51.7269 40.685 51.7069 40.281C51.6889 39.841 51.6759 39.42 51.6679 39.018C51.6599 38.614 51.6589 38.209 51.6649 37.803C51.6729 37.397 51.6869 36.973 51.7069 36.531C51.7269 36.113 51.8219 35.818 51.9919 35.646C52.1639 35.472 52.4269 35.385 52.7809 35.385C53.1409 35.385 53.4039 35.473 53.5699 35.649C53.7359 35.825 53.8279 36.119 53.8459 36.531C53.8779 37.249 53.8929 37.906 53.8909 38.502C53.8889 39.096 53.8739 39.685 53.8459 40.269C53.8259 40.681 53.7319 40.975 53.5639 41.151C53.3979 41.327 53.1369 41.415 52.7809 41.415ZM52.7809 41.247C53.0689 41.247 53.2789 41.17 53.4109 41.016C53.5429 40.862 53.6179 40.61 53.6359 40.26C53.6639 39.65 53.6779 39.058 53.6779 38.484C53.6799 37.908 53.6659 37.26 53.6359 36.54C53.6199 36.194 53.5459 35.943 53.4139 35.787C53.2839 35.631 53.0729 35.553 52.7809 35.553C52.4869 35.553 52.2739 35.631 52.1419 35.787C52.0119 35.941 51.9379 36.191 51.9199 36.537C51.8999 36.983 51.8859 37.406 51.8779 37.806C51.8719 38.206 51.8719 38.606 51.8779 39.006C51.8859 39.404 51.8999 39.827 51.9199 40.275C51.9379 40.615 52.0129 40.862 52.1449 41.016C52.2789 41.17 52.4909 41.247 52.7809 41.247ZM59.6279 42V36.513C59.6279 36.339 59.6129 36.158 59.5829 35.97C59.5549 35.78 59.4939 35.603 59.3999 35.439C59.3079 35.275 59.1679 35.142 58.9799 35.04C58.7939 34.936 58.5439 34.884 58.2299 34.884C57.8759 34.884 57.5679 34.959 57.3059 35.109C57.0459 35.259 56.8389 35.466 56.6849 35.73H56.6369L56.7389 34.8H56.9489V34.902L56.8199 35.346H56.8649C57.0409 35.122 57.2469 34.959 57.4829 34.857C57.7209 34.755 57.9889 34.704 58.2869 34.704C58.5669 34.704 58.7999 34.742 58.9859 34.818C59.1719 34.892 59.3219 34.992 59.4359 35.118C59.5499 35.244 59.6359 35.385 59.6939 35.541C59.7519 35.697 59.7899 35.856 59.8079 36.018C59.8279 36.18 59.8379 36.334 59.8379 36.48V42H59.6279ZM55.9079 42V34.8H56.1209V42H55.9079ZM56.7539 42V36.693C56.7539 36.465 56.8089 36.257 56.9189 36.069C57.0289 35.879 57.1819 35.727 57.3779 35.613C57.5739 35.499 57.8009 35.442 58.0589 35.442C58.2669 35.442 58.4329 35.476 58.5569 35.544C58.6829 35.612 58.7769 35.702 58.8389 35.814C58.9029 35.924 58.9449 36.046 58.9649 36.18C58.9869 36.314 58.9979 36.446 58.9979 36.576V42H58.7879V36.585C58.7879 36.423 58.7699 36.269 58.7339 36.123C58.6999 35.977 58.6289 35.857 58.5209 35.763C58.4129 35.669 58.2499 35.622 58.0319 35.622C57.8339 35.622 57.6549 35.668 57.4949 35.76C57.3349 35.85 57.2079 35.974 57.1139 36.132C57.0219 36.29 56.9759 36.472 56.9759 36.678L56.9669 42H56.7539ZM56.3309 42V34.8H56.5409L56.4989 36.201H56.5499C56.6779 35.845 56.8819 35.567 57.1619 35.367C57.4419 35.165 57.7779 35.065 58.1699 35.067C58.6279 35.069 58.9499 35.197 59.1359 35.451C59.3239 35.703 59.4179 36.06 59.4179 36.522V42H59.2049V36.543C59.2049 36.121 59.1219 35.8 58.9559 35.58C58.7919 35.358 58.5089 35.247 58.1069 35.247C57.7889 35.247 57.5129 35.317 57.2789 35.457C57.0469 35.597 56.8669 35.778 56.7389 36C56.6109 36.222 56.5469 36.457 56.5469 36.705V42H56.3309Z" fill="currentColor"/>
<path fill-rule="evenodd" clip-rule="evenodd" d="M32.254 29.7759C32.407 29.5905 32.6672 29.4386 32.8324 29.4383C33.2228 29.4376 33.6609 28.6101 33.4593 28.2544C33.3735 28.1028 33.1137 27.7676 32.8818 27.5095C32.376 26.9468 32.5483 26.1694 33.1162 26.4518C33.6994 26.7415 55.6829 26.7569 56.2194 26.4678C56.9419 26.0783 56.6601 25.3392 55.524 24.6434C54.5048 24.0194 50.5165 22.8343 46.977 22.1033C45.0495 21.7054 45.0495 21.7054 41.2764 22.6818C39.201 23.2189 37.201 23.6994 36.8318 23.7494C36.1604 23.8408 36.1604 23.8408 36.9432 23.4797C37.3737 23.281 39.9911 22.4561 42.7597 21.6467C50.0637 19.5107 51.0372 19.1558 51.0363 18.6289C51.035 17.9001 44.2781 17.3702 39.5262 17.7264C36.0997 17.983 34.3376 18.465 33.1508 19.4698C32.797 19.7693 32.4547 20.0145 32.3905 20.0146C32.1729 20.015 31.7965 17.8137 31.6548 15.7114C31.5773 14.5618 31.6268 12.3586 31.7648 10.8157C32.4241 3.44791 32.2787 0.0439272 31.3048 0.0456909C30.3308 0.0474546 30.1978 3.45195 30.8838 10.8173C31.0273 12.3597 31.0848 14.5627 31.0115 15.7126C30.8774 17.8154 30.5089 20.018 30.2914 20.0184C30.2271 20.0185 29.884 19.7746 29.5291 19.4763C28.3387 18.4759 26.5749 18.0002 23.1474 17.756C18.3943 17.417 11.6394 17.9714 11.6407 18.7002C11.6416 19.2271 12.6164 19.5785 19.9281 21.688C22.6996 22.4875 25.32 23.3029 25.7513 23.5C26.5353 23.8583 26.5353 23.8583 25.8637 23.7702C25.4942 23.7219 23.5709 23.2668 21.5896 22.7592C19.6084 22.2514 17.7758 21.8362 17.5172 21.8367C16.8876 21.8378 11.7574 23.0712 9.52337 23.7585C6.62894 24.649 5.2714 25.9089 6.49945 26.565C7.02441 26.8455 29.0196 26.7437 29.5885 26.4582C29.854 26.3248 29.9837 26.4029 30.0752 26.7517C30.155 27.0551 30.0791 27.2734 29.8648 27.3563C29.0571 27.6686 29.0728 29.4451 29.8836 29.4436C30.0488 29.4433 30.3096 29.5943 30.4633 29.7791C30.6169 29.964 31.0201 30.1147 31.3592 30.1141C31.6983 30.1135 32.101 29.9613 32.254 29.7759Z" fill="currentColor"/>
</svg>
