<svg width="157" height="31" viewBox="0 0 157 31" fill="none" xmlns="http://www.w3.org/2000/svg">
<path d="M34.984 24V5.904H31.168V5.532H39.214V5.904H35.404V24H34.984ZM34.138 24V6.636H31.168V6.27H34.558V24H34.138ZM35.83 24V6.27H39.214V6.636H36.25V24H35.83ZM31.168 5.166V4.8H39.214V5.166H31.168ZM48.1152 24V13.026C48.1152 12.326 48.0332 11.734 47.8692 11.25C47.7052 10.766 47.4192 10.398 47.0112 10.146C46.6072 9.894 46.0432 9.768 45.3192 9.768C44.6072 9.768 43.9912 9.916 43.4712 10.212C42.9512 10.508 42.5372 10.924 42.2292 11.46H42.1392L42.3372 8.544V4.8H42.7572V8.052L42.4572 10.692H42.5472C42.8872 10.24 43.3032 9.914 43.7952 9.714C44.2912 9.51 44.8372 9.408 45.4332 9.408C46.2412 9.408 46.8692 9.546 47.3172 9.822C47.7652 10.094 48.0792 10.494 48.2592 11.022C48.4432 11.55 48.5352 12.196 48.5352 12.96V24H48.1152ZM40.6752 24V4.8H41.1012V24H40.6752ZM42.3672 24V13.386C42.3672 12.93 42.4772 12.514 42.6972 12.138C42.9172 11.758 43.2232 11.454 43.6152 11.226C44.0072 10.998 44.4612 10.884 44.9772 10.884C45.7132 10.884 46.2092 11.082 46.4652 11.478C46.7252 11.87 46.8552 12.428 46.8552 13.152V24H46.4352V13.17C46.4352 12.566 46.3332 12.094 46.1292 11.754C45.9252 11.414 45.5232 11.244 44.9232 11.244C44.5272 11.244 44.1692 11.336 43.8492 11.52C43.5292 11.7 43.2752 11.948 43.0872 12.264C42.9032 12.58 42.8112 12.944 42.8112 13.356L42.7932 24H42.3672ZM41.5212 24V4.8H41.9412V9.054L41.8512 12.402H41.9592C42.2152 11.69 42.6232 11.134 43.1832 10.734C43.7432 10.33 44.4152 10.13 45.1992 10.134C46.1792 10.142 46.8392 10.398 47.1792 10.902C47.5232 11.402 47.6952 12.116 47.6952 13.044V24H47.2692V13.086C47.2692 12.254 47.1152 11.614 46.8072 11.166C46.5032 10.718 45.9252 10.494 45.0732 10.494C44.4372 10.494 43.8852 10.634 43.4172 10.914C42.9532 11.194 42.5932 11.556 42.3372 12C42.0812 12.444 41.9532 12.914 41.9532 13.41V24H41.5212ZM51.0814 5.328V4.95H53.1994V5.328H51.0814ZM51.0814 6.852V6.474H53.1994V6.852H51.0814ZM51.0814 6.09V5.712H53.1994V6.09H51.0814ZM52.7734 24V9.6H53.1994V24H52.7734ZM51.0814 24V9.6H51.5074V24H51.0814ZM51.9274 24V9.6H52.3534V24H51.9274ZM63.2558 24V13.026C63.2558 12.678 63.2258 12.316 63.1658 11.94C63.1098 11.56 62.9878 11.206 62.7998 10.878C62.6158 10.55 62.3358 10.284 61.9598 10.08C61.5878 9.872 61.0878 9.768 60.4598 9.768C59.7518 9.768 59.1358 9.918 58.6118 10.218C58.0918 10.518 57.6778 10.932 57.3698 11.46H57.2738L57.4778 9.6H57.8978V9.804L57.6398 10.692H57.7298C58.0818 10.244 58.4938 9.918 58.9658 9.714C59.4418 9.51 59.9778 9.408 60.5738 9.408C61.1338 9.408 61.5998 9.484 61.9718 9.636C62.3438 9.784 62.6438 9.984 62.8718 10.236C63.0998 10.488 63.2718 10.77 63.3878 11.082C63.5038 11.394 63.5798 11.712 63.6158 12.036C63.6558 12.36 63.6758 12.668 63.6758 12.96V24H63.2558ZM55.8158 24V9.6H56.2418V24H55.8158ZM57.5078 24V13.386C57.5078 12.93 57.6178 12.514 57.8378 12.138C58.0578 11.758 58.3638 11.454 58.7558 11.226C59.1478 10.998 59.6018 10.884 60.1178 10.884C60.5338 10.884 60.8658 10.952 61.1138 11.088C61.3658 11.224 61.5538 11.404 61.6778 11.628C61.8058 11.848 61.8898 12.092 61.9298 12.36C61.9738 12.628 61.9958 12.892 61.9958 13.152V24H61.5758V13.17C61.5758 12.846 61.5398 12.538 61.4678 12.246C61.3998 11.954 61.2578 11.714 61.0418 11.526C60.8258 11.338 60.4998 11.244 60.0638 11.244C59.6678 11.244 59.3098 11.336 58.9898 11.52C58.6698 11.7 58.4158 11.948 58.2278 12.264C58.0438 12.58 57.9518 12.944 57.9518 13.356L57.9338 24H57.5078ZM56.6618 24V9.6H57.0818L56.9978 12.402H57.0998C57.3558 11.69 57.7638 11.134 58.3238 10.734C58.8838 10.33 59.5558 10.13 60.3398 10.134C61.2558 10.138 61.8998 10.394 62.2718 10.902C62.6478 11.406 62.8358 12.12 62.8358 13.044V24H62.4098V13.086C62.4098 12.242 62.2438 11.6 61.9118 11.16C61.5838 10.716 61.0178 10.494 60.2138 10.494C59.5778 10.494 59.0258 10.634 58.5578 10.914C58.0938 11.194 57.7338 11.556 57.4778 12C57.2218 12.444 57.0938 12.914 57.0938 13.41V24H56.6618ZM67.0681 24V4.8H67.4941V11.058L67.3921 18.054H67.5901L71.1181 11.19L71.8861 9.6H72.3781L69.5161 15.18L73.0861 24H72.6241L69.2461 15.648L67.4941 18.918V24H67.0681ZM67.9141 24V19.032L69.1861 16.614L72.1681 24H71.7121L69.1261 17.58L68.3401 19.146V24H67.9141ZM66.2221 24V4.8H66.6481V24H66.2221ZM73.5361 24L69.9841 15.21L72.8641 9.6H73.3561L70.4581 15.24L73.9921 24H73.5361ZM67.6621 16.98L67.9141 10.812V4.8H68.3401V10.56L68.0341 15.606H68.1661L70.4161 10.68L70.9081 9.6H71.4001L70.7821 10.908L67.8181 16.98H67.6621ZM75.3158 5.328V4.95H77.4338V5.328H75.3158ZM75.3158 6.852V6.474H77.4338V6.852H75.3158ZM75.3158 6.09V5.712H77.4338V6.09H75.3158ZM77.0078 24V9.6H77.4338V24H77.0078ZM75.3158 24V9.6H75.7418V24H75.3158ZM76.1618 24V9.6H76.5878V24H76.1618ZM87.4902 24V13.026C87.4902 12.678 87.4602 12.316 87.4002 11.94C87.3442 11.56 87.2222 11.206 87.0342 10.878C86.8502 10.55 86.5702 10.284 86.1942 10.08C85.8222 9.872 85.3222 9.768 84.6942 9.768C83.9862 9.768 83.3702 9.918 82.8462 10.218C82.3262 10.518 81.9122 10.932 81.6042 11.46H81.5082L81.7122 9.6H82.1322V9.804L81.8742 10.692H81.9642C82.3162 10.244 82.7282 9.918 83.2002 9.714C83.6762 9.51 84.2122 9.408 84.8082 9.408C85.3682 9.408 85.8342 9.484 86.2062 9.636C86.5782 9.784 86.8782 9.984 87.1062 10.236C87.3342 10.488 87.5062 10.77 87.6222 11.082C87.7382 11.394 87.8142 11.712 87.8502 12.036C87.8902 12.36 87.9102 12.668 87.9102 12.96V24H87.4902ZM80.0502 24V9.6H80.4762V24H80.0502ZM81.7422 24V13.386C81.7422 12.93 81.8522 12.514 82.0722 12.138C82.2922 11.758 82.5982 11.454 82.9902 11.226C83.3822 10.998 83.8362 10.884 84.3522 10.884C84.7682 10.884 85.1002 10.952 85.3482 11.088C85.6002 11.224 85.7882 11.404 85.9122 11.628C86.0402 11.848 86.1242 12.092 86.1642 12.36C86.2082 12.628 86.2302 12.892 86.2302 13.152V24H85.8102V13.17C85.8102 12.846 85.7742 12.538 85.7022 12.246C85.6342 11.954 85.4922 11.714 85.2762 11.526C85.0602 11.338 84.7342 11.244 84.2982 11.244C83.9022 11.244 83.5442 11.336 83.2242 11.52C82.9042 11.7 82.6502 11.948 82.4622 12.264C82.2782 12.58 82.1862 12.944 82.1862 13.356L82.1682 24H81.7422ZM80.8962 24V9.6H81.3162L81.2322 12.402H81.3342C81.5902 11.69 81.9982 11.134 82.5582 10.734C83.1182 10.33 83.7902 10.13 84.5742 10.134C85.4902 10.138 86.1342 10.394 86.5062 10.902C86.8822 11.406 87.0702 12.12 87.0702 13.044V24H86.6442V13.086C86.6442 12.242 86.4782 11.6 86.1462 11.16C85.8182 10.716 85.2522 10.494 84.4482 10.494C83.8122 10.494 83.2602 10.634 82.7922 10.914C82.3282 11.194 81.9682 11.556 81.7122 12C81.4562 12.444 81.3282 12.914 81.3282 13.41V24H80.8962ZM95.5921 24V4.8H99.3901C100.146 4.8 100.806 4.89 101.37 5.07C101.938 5.25 102.384 5.586 102.708 6.078C103.032 6.566 103.202 7.276 103.218 8.208C103.242 9.54 103.258 10.866 103.266 12.186C103.274 13.506 103.274 14.856 103.266 16.236C103.262 17.612 103.246 19.06 103.218 20.58C103.202 21.512 103.038 22.224 102.726 22.716C102.414 23.208 101.984 23.546 101.436 23.73C100.888 23.91 100.248 24 99.5161 24H95.5921ZM96.0121 23.634H99.5161C99.9921 23.634 100.428 23.592 100.824 23.508C101.22 23.42 101.562 23.266 101.85 23.046C102.142 22.822 102.368 22.51 102.528 22.11C102.692 21.71 102.78 21.196 102.792 20.568C102.812 19.336 102.826 18.044 102.834 16.692C102.846 15.336 102.848 13.946 102.84 12.522C102.836 11.094 102.82 9.66 102.792 8.22C102.776 7.412 102.632 6.788 102.36 6.348C102.092 5.904 101.706 5.596 101.202 5.424C100.702 5.252 100.098 5.166 99.3901 5.166H96.0121V23.634ZM96.4381 23.262V5.532H99.3901C100.026 5.532 100.562 5.61 100.998 5.766C101.434 5.922 101.768 6.194 102 6.582C102.236 6.97 102.36 7.516 102.372 8.22C102.388 9.236 102.4 10.244 102.408 11.244C102.42 12.24 102.426 13.244 102.426 14.256C102.426 15.264 102.422 16.29 102.414 17.334C102.406 18.378 102.392 19.456 102.372 20.568C102.36 21.308 102.232 21.872 101.988 22.26C101.744 22.648 101.408 22.912 100.98 23.052C100.556 23.192 100.068 23.262 99.5161 23.262H96.4381ZM96.8581 22.896H99.5161C100.324 22.896 100.926 22.724 101.322 22.38C101.722 22.036 101.93 21.43 101.946 20.562C101.97 19.214 101.986 17.864 101.994 16.512C102.002 15.16 102.002 13.796 101.994 12.42C101.99 11.044 101.974 9.646 101.946 8.226C101.926 7.294 101.688 6.674 101.232 6.366C100.78 6.058 100.166 5.904 99.3901 5.904H96.8581V22.896ZM97.2841 22.53V6.27H99.3901C99.7941 6.27 100.154 6.32 100.47 6.42C100.786 6.516 101.036 6.704 101.22 6.984C101.408 7.264 101.508 7.682 101.52 8.238C101.548 9.646 101.566 10.996 101.574 12.288C101.586 13.58 101.586 14.894 101.574 16.23C101.566 17.566 101.548 19.006 101.52 20.55C101.504 21.366 101.312 21.9 100.944 22.152C100.576 22.404 100.1 22.53 99.5161 22.53H97.2841ZM97.7041 22.164H99.5161C99.7921 22.164 100.048 22.126 100.284 22.05C100.52 21.974 100.712 21.818 100.86 21.582C101.012 21.346 101.092 20.99 101.1 20.514C101.124 19.246 101.14 17.916 101.148 16.524C101.156 15.132 101.156 13.734 101.148 12.33C101.14 10.926 101.124 9.576 101.1 8.28C101.088 7.604 100.924 7.162 100.608 6.954C100.296 6.742 99.8901 6.636 99.3901 6.636H97.7041V22.164ZM106.654 24V9.6H107.074L107.08 10.74L106.972 12.402H107.092C107.34 11.702 107.746 11.174 108.31 10.818C108.874 10.458 109.54 10.278 110.308 10.278C110.512 10.278 110.73 10.284 110.962 10.296C111.198 10.304 111.374 10.312 111.49 10.32V10.68C111.342 10.672 111.14 10.666 110.884 10.662C110.628 10.654 110.402 10.65 110.206 10.65C109.562 10.65 109.006 10.782 108.538 11.046C108.074 11.31 107.718 11.654 107.47 12.078C107.222 12.498 107.098 12.944 107.098 13.416V24H106.654ZM105.808 24V9.6H106.234V24H105.808ZM107.5 24V13.386C107.5 12.698 107.746 12.136 108.238 11.7C108.73 11.264 109.336 11.046 110.056 11.046C110.296 11.046 110.544 11.048 110.8 11.052C111.056 11.052 111.286 11.054 111.49 11.058V11.424C111.29 11.416 111.06 11.412 110.8 11.412C110.54 11.412 110.29 11.412 110.05 11.412C109.47 11.412 108.974 11.58 108.562 11.916C108.15 12.252 107.944 12.732 107.944 13.356V24H107.5ZM107.272 11.46L107.5 10.098V9.6H107.92L107.926 9.81L107.644 10.692H107.722C108.014 10.288 108.418 9.996 108.934 9.816C109.45 9.636 109.974 9.546 110.506 9.546C110.638 9.546 110.796 9.55 110.98 9.558C111.164 9.566 111.334 9.576 111.49 9.588V9.954C111.362 9.942 111.208 9.932 111.028 9.924C110.852 9.916 110.676 9.912 110.5 9.912C109.796 9.912 109.172 10.04 108.628 10.296C108.088 10.548 107.666 10.936 107.362 11.46H107.272ZM119.852 24V13.116C119.852 12.004 119.628 11.166 119.18 10.602C118.736 10.034 117.92 9.75 116.732 9.75C115.684 9.75 114.882 9.958 114.326 10.374C113.774 10.79 113.474 11.542 113.426 12.63C113.414 12.982 113.408 13.324 113.408 13.656C113.412 13.984 113.424 14.322 113.444 14.67H113.03C113.006 14.286 112.992 13.936 112.988 13.62C112.984 13.304 112.99 12.968 113.006 12.612C113.054 11.472 113.37 10.654 113.954 10.158C114.538 9.662 115.464 9.414 116.732 9.414C117.648 9.414 118.362 9.556 118.874 9.84C119.39 10.12 119.752 10.536 119.96 11.088C120.172 11.636 120.278 12.312 120.278 13.116V24H119.852ZM115.964 23.178C116.592 23.178 117.132 23.03 117.584 22.734C118.036 22.438 118.384 22.06 118.628 21.6C118.876 21.136 119 20.658 119 20.166V16.158C118.5 16.29 117.984 16.446 117.452 16.626C116.924 16.802 116.482 16.974 116.126 17.142C115.426 17.478 114.902 17.876 114.554 18.336C114.21 18.796 114.01 19.412 113.954 20.184C113.942 20.372 113.938 20.542 113.942 20.694C113.946 20.846 113.954 21.008 113.966 21.18C114.034 21.796 114.238 22.284 114.578 22.644C114.918 23 115.38 23.178 115.964 23.178ZM116.048 22.818C115.556 22.818 115.166 22.662 114.878 22.35C114.594 22.038 114.43 21.632 114.386 21.132C114.374 20.988 114.366 20.84 114.362 20.688C114.362 20.532 114.366 20.378 114.374 20.226C114.414 19.506 114.59 18.942 114.902 18.534C115.214 18.122 115.672 17.768 116.276 17.472C116.668 17.284 117.044 17.122 117.404 16.986C117.764 16.85 118.154 16.722 118.574 16.602V20.196C118.574 20.652 118.47 21.08 118.262 21.48C118.054 21.88 117.762 22.204 117.386 22.452C117.01 22.696 116.564 22.818 116.048 22.818ZM116.096 22.488C116.492 22.488 116.844 22.386 117.152 22.182C117.46 21.974 117.702 21.698 117.878 21.354C118.058 21.01 118.148 20.634 118.148 20.226V17.058C117.86 17.162 117.578 17.274 117.302 17.394C117.03 17.51 116.742 17.644 116.438 17.796C115.87 18.084 115.46 18.412 115.208 18.78C114.96 19.148 114.822 19.636 114.794 20.244C114.79 20.396 114.788 20.544 114.788 20.688C114.792 20.828 114.8 20.966 114.812 21.102C114.844 21.498 114.97 21.828 115.19 22.092C115.414 22.356 115.716 22.488 116.096 22.488ZM115.652 24.18C114.808 24.18 114.124 23.928 113.6 23.424C113.08 22.92 112.78 22.2 112.7 21.264C112.684 21.064 112.676 20.868 112.676 20.676C112.676 20.484 112.68 20.282 112.688 20.07C112.744 19.146 113 18.38 113.456 17.772C113.916 17.16 114.652 16.622 115.664 16.158C115.904 16.046 116.146 15.94 116.39 15.84C116.638 15.74 116.906 15.64 117.194 15.54C117.482 15.436 117.804 15.332 118.16 15.228V13.116C118.16 12.496 118.058 12.006 117.854 11.646C117.654 11.286 117.28 11.106 116.732 11.106C116.188 11.106 115.788 11.242 115.532 11.514C115.276 11.782 115.136 12.188 115.112 12.732C115.104 12.928 115.1 13.206 115.1 13.566C115.1 13.926 115.108 14.294 115.124 14.67H114.704C114.688 14.31 114.68 13.952 114.68 13.596C114.68 13.24 114.684 12.942 114.692 12.702C114.72 12.018 114.9 11.526 115.232 11.226C115.568 10.922 116.068 10.77 116.732 10.77C117.456 10.77 117.946 10.982 118.202 11.406C118.458 11.826 118.586 12.396 118.586 13.116V15.516C118.082 15.668 117.586 15.828 117.098 15.996C116.61 16.164 116.184 16.326 115.82 16.482C114.948 16.87 114.288 17.356 113.84 17.94C113.392 18.52 113.148 19.24 113.108 20.1C113.104 20.288 113.102 20.476 113.102 20.664C113.102 20.852 113.11 21.042 113.126 21.234C113.19 22.042 113.45 22.68 113.906 23.148C114.366 23.612 114.982 23.844 115.754 23.844C116.47 23.844 117.066 23.692 117.542 23.388C118.022 23.08 118.416 22.66 118.724 22.128H118.826L118.616 23.484V24H118.202L118.196 23.772L118.46 22.89H118.376C118.04 23.342 117.65 23.67 117.206 23.874C116.766 24.078 116.248 24.18 115.652 24.18ZM119.006 24V22.842L119.102 21.18H119.006C118.75 21.892 118.354 22.46 117.818 22.884C117.282 23.304 116.626 23.512 115.85 23.508C115.198 23.508 114.666 23.306 114.254 22.902C113.842 22.494 113.606 21.93 113.546 21.21C113.534 21.026 113.526 20.848 113.522 20.676C113.522 20.504 113.526 20.322 113.534 20.13C113.578 19.29 113.792 18.618 114.176 18.114C114.56 17.61 115.16 17.176 115.976 16.812C116.22 16.704 116.512 16.59 116.852 16.47C117.192 16.346 117.548 16.226 117.92 16.11C118.296 15.994 118.66 15.89 119.012 15.798V13.116C119.012 12.276 118.854 11.618 118.538 11.142C118.222 10.666 117.62 10.428 116.732 10.428C115.92 10.428 115.314 10.602 114.914 10.95C114.518 11.298 114.302 11.88 114.266 12.696C114.258 12.932 114.254 13.23 114.254 13.59C114.254 13.946 114.266 14.306 114.29 14.67H113.864C113.844 14.326 113.832 13.974 113.828 13.614C113.828 13.254 113.834 12.946 113.846 12.69C113.882 11.77 114.126 11.106 114.578 10.698C115.03 10.29 115.748 10.086 116.732 10.086C117.756 10.086 118.462 10.344 118.85 10.86C119.238 11.372 119.432 12.124 119.432 13.116V24H119.006ZM126.358 28.146C125.074 28.146 124.106 27.94 123.454 27.528C122.802 27.116 122.438 26.486 122.362 25.638C122.354 25.514 122.352 25.39 122.356 25.266C122.364 25.142 122.376 25.018 122.392 24.894C122.44 24.446 122.584 24.082 122.824 23.802C123.068 23.522 123.412 23.32 123.856 23.196V23.106C123.512 23.006 123.252 22.858 123.076 22.662C122.904 22.466 122.8 22.194 122.764 21.846C122.76 21.762 122.758 21.67 122.758 21.57C122.758 21.466 122.76 21.37 122.764 21.282C122.792 20.894 122.892 20.574 123.064 20.322C123.24 20.07 123.552 19.88 124 19.752V19.662C123.624 19.53 123.298 19.264 123.022 18.864C122.746 18.464 122.59 17.934 122.554 17.274C122.534 16.914 122.52 16.554 122.512 16.194C122.504 15.83 122.5 15.462 122.5 15.09C122.5 14.714 122.504 14.332 122.512 13.944C122.52 13.552 122.532 13.15 122.548 12.738C122.6 11.55 122.928 10.7 123.532 10.188C124.14 9.672 125.076 9.414 126.34 9.414C127.172 9.414 127.8 9.532 128.224 9.768C128.648 10 128.94 10.34 129.1 10.788H129.19C129.354 10.496 129.578 10.262 129.862 10.086C130.15 9.91 130.454 9.784 130.774 9.708C131.094 9.628 131.38 9.592 131.632 9.6V9.948C130.948 9.94 130.4 10.064 129.988 10.32C129.58 10.576 129.302 10.908 129.154 11.316H129.052C128.92 10.792 128.648 10.4 128.236 10.14C127.824 9.88 127.192 9.75 126.34 9.75C125.228 9.75 124.398 9.982 123.85 10.446C123.306 10.906 123.012 11.668 122.968 12.732C122.948 13.3 122.932 13.832 122.92 14.328C122.912 14.82 122.912 15.302 122.92 15.774C122.928 16.246 122.944 16.736 122.968 17.244C123.008 17.968 123.172 18.524 123.46 18.912C123.752 19.296 124.128 19.55 124.588 19.674V19.764C124.072 19.888 123.706 20.068 123.49 20.304C123.274 20.54 123.15 20.864 123.118 21.276C123.114 21.376 123.112 21.472 123.112 21.564C123.112 21.656 123.116 21.752 123.124 21.852C123.152 22.196 123.254 22.458 123.43 22.638C123.61 22.814 123.932 22.968 124.396 23.1V23.196C123.852 23.324 123.456 23.52 123.208 23.784C122.964 24.048 122.81 24.418 122.746 24.894C122.726 25.026 122.71 25.142 122.698 25.242C122.686 25.346 122.688 25.476 122.704 25.632C122.784 26.388 123.106 26.944 123.67 27.3C124.238 27.66 125.134 27.84 126.358 27.84C127.622 27.84 128.544 27.658 129.124 27.294C129.704 26.93 130.036 26.348 130.12 25.548C130.14 25.404 130.148 25.274 130.144 25.158C130.144 25.042 130.134 24.912 130.114 24.768C130.026 24.06 129.696 23.544 129.124 23.22C128.552 22.896 127.654 22.716 126.43 22.68C125.902 22.664 125.482 22.626 125.17 22.566C124.858 22.506 124.626 22.418 124.474 22.302C124.326 22.186 124.23 22.038 124.186 21.858C124.166 21.782 124.152 21.682 124.144 21.558C124.14 21.43 124.144 21.334 124.156 21.27C124.228 20.862 124.424 20.586 124.744 20.442C125.064 20.298 125.598 20.23 126.346 20.238C127.498 20.246 128.326 20 128.83 19.5C129.334 18.996 129.614 18.24 129.67 17.232C129.694 16.692 129.708 16.202 129.712 15.762C129.72 15.322 129.72 14.866 129.712 14.394C129.704 13.918 129.69 13.36 129.67 12.72C129.654 12.172 129.814 11.732 130.15 11.4C130.486 11.064 130.98 10.906 131.632 10.926V11.268C131.072 11.256 130.664 11.392 130.408 11.676C130.156 11.956 130.038 12.324 130.054 12.78C130.07 13.308 130.082 13.808 130.09 14.28C130.102 14.748 130.106 15.222 130.102 15.702C130.102 16.178 130.088 16.694 130.06 17.25C129.996 18.43 129.67 19.28 129.082 19.8C128.498 20.316 127.584 20.574 126.34 20.574C125.92 20.574 125.582 20.594 125.326 20.634C125.074 20.674 124.886 20.75 124.762 20.862C124.638 20.97 124.562 21.128 124.534 21.336C124.53 21.356 124.528 21.416 124.528 21.516C124.528 21.612 124.534 21.686 124.546 21.738C124.582 21.886 124.662 22.004 124.786 22.092C124.91 22.176 125.102 22.236 125.362 22.272C125.626 22.308 125.984 22.334 126.436 22.35C127.776 22.386 128.77 22.598 129.418 22.986C130.066 23.374 130.424 23.97 130.492 24.774C130.504 24.914 130.51 25.048 130.51 25.176C130.514 25.304 130.51 25.43 130.498 25.554C130.418 26.438 130.048 27.09 129.388 27.51C128.732 27.934 127.722 28.146 126.358 28.146ZM126.358 27.222C127.098 27.222 127.686 27.154 128.122 27.018C128.558 26.886 128.876 26.696 129.076 26.448C129.276 26.204 129.386 25.916 129.406 25.584C129.418 25.416 129.422 25.274 129.418 25.158C129.418 25.042 129.408 24.912 129.388 24.768C129.352 24.452 129.23 24.19 129.022 23.982C128.814 23.77 128.498 23.604 128.074 23.484C127.654 23.364 127.102 23.288 126.418 23.256C125.438 23.212 124.716 23.32 124.252 23.58C123.788 23.84 123.504 24.282 123.4 24.906C123.38 25.022 123.366 25.136 123.358 25.248C123.35 25.364 123.354 25.5 123.37 25.656C123.438 26.22 123.71 26.622 124.186 26.862C124.662 27.102 125.386 27.222 126.358 27.222ZM126.358 26.928C125.462 26.928 124.808 26.826 124.396 26.622C123.984 26.422 123.752 26.094 123.7 25.638C123.684 25.514 123.678 25.394 123.682 25.278C123.69 25.166 123.708 25.038 123.736 24.894C123.824 24.338 124.082 23.966 124.51 23.778C124.938 23.586 125.588 23.504 126.46 23.532C127.024 23.548 127.49 23.602 127.858 23.694C128.226 23.786 128.506 23.92 128.698 24.096C128.89 24.272 129.006 24.496 129.046 24.768C129.07 24.944 129.082 25.086 129.082 25.194C129.082 25.306 129.072 25.428 129.052 25.56C128.996 26.044 128.758 26.392 128.338 26.604C127.922 26.82 127.262 26.928 126.358 26.928ZM126.358 26.61C126.862 26.61 127.276 26.576 127.6 26.508C127.924 26.44 128.17 26.328 128.338 26.172C128.51 26.016 128.616 25.81 128.656 25.554C128.68 25.422 128.692 25.292 128.692 25.164C128.696 25.036 128.68 24.904 128.644 24.768C128.612 24.576 128.516 24.416 128.356 24.288C128.2 24.16 127.964 24.062 127.648 23.994C127.336 23.922 126.928 23.874 126.424 23.85C125.648 23.814 125.082 23.884 124.726 24.06C124.37 24.236 124.16 24.514 124.096 24.894C124.06 25.014 124.04 25.14 124.036 25.272C124.036 25.408 124.046 25.53 124.066 25.638C124.118 25.97 124.32 26.214 124.672 26.37C125.028 26.53 125.59 26.61 126.358 26.61ZM126.358 27.546C125.222 27.546 124.398 27.396 123.886 27.096C123.374 26.796 123.086 26.308 123.022 25.632C123.01 25.488 123.006 25.362 123.01 25.254C123.018 25.146 123.03 25.026 123.046 24.894C123.106 24.386 123.288 23.998 123.592 23.73C123.896 23.462 124.376 23.28 125.032 23.184V23.094C124.516 23.026 124.134 22.896 123.886 22.704C123.638 22.512 123.488 22.228 123.436 21.852C123.424 21.752 123.418 21.656 123.418 21.564C123.418 21.468 123.42 21.372 123.424 21.276C123.452 20.832 123.608 20.492 123.892 20.256C124.176 20.016 124.6 19.85 125.164 19.758V19.68C124.624 19.56 124.202 19.306 123.898 18.918C123.594 18.53 123.424 17.96 123.388 17.208C123.364 16.764 123.348 16.306 123.34 15.834C123.336 15.362 123.338 14.872 123.346 14.364C123.358 13.852 123.372 13.318 123.388 12.762C123.428 11.806 123.686 11.122 124.162 10.71C124.642 10.294 125.368 10.086 126.34 10.086C127.18 10.086 127.806 10.242 128.218 10.554C128.63 10.862 128.886 11.368 128.986 12.072H129.076C129.188 11.668 129.348 11.332 129.556 11.064C129.764 10.796 130.038 10.594 130.378 10.458C130.718 10.322 131.136 10.252 131.632 10.248V10.596C130.864 10.58 130.272 10.77 129.856 11.166C129.44 11.562 129.246 12.078 129.274 12.714C129.294 13.238 129.306 13.76 129.31 14.28C129.314 14.796 129.312 15.3 129.304 15.792C129.3 16.28 129.288 16.748 129.268 17.196C129.216 18.148 128.954 18.84 128.482 19.272C128.014 19.704 127.298 19.916 126.334 19.908C125.89 19.904 125.484 19.944 125.116 20.028C124.752 20.108 124.456 20.242 124.228 20.43C124.004 20.618 123.87 20.876 123.826 21.204C123.81 21.308 123.804 21.422 123.808 21.546C123.812 21.67 123.818 21.766 123.826 21.834C123.894 22.266 124.138 22.552 124.558 22.692C124.982 22.832 125.604 22.914 126.424 22.938C127.144 22.958 127.744 23.034 128.224 23.166C128.704 23.298 129.072 23.494 129.328 23.754C129.584 24.014 129.738 24.35 129.79 24.762C129.802 24.886 129.81 25.014 129.814 25.146C129.818 25.278 129.812 25.414 129.796 25.554C129.728 26.286 129.406 26.8 128.83 27.096C128.258 27.396 127.434 27.546 126.358 27.546ZM126.34 19.536C127.148 19.536 127.758 19.354 128.17 18.99C128.586 18.622 128.814 18.024 128.854 17.196C128.882 16.712 128.898 16.236 128.902 15.768C128.906 15.296 128.904 14.814 128.896 14.322C128.888 13.826 128.874 13.3 128.854 12.744C128.822 11.904 128.596 11.308 128.176 10.956C127.756 10.604 127.144 10.428 126.34 10.428C125.464 10.428 124.83 10.62 124.438 11.004C124.05 11.388 123.84 11.978 123.808 12.774C123.784 13.618 123.77 14.378 123.766 15.054C123.766 15.726 123.78 16.454 123.808 17.238C123.844 18.034 124.072 18.616 124.492 18.984C124.912 19.352 125.528 19.536 126.34 19.536ZM126.34 19.2C125.636 19.2 125.114 19.038 124.774 18.714C124.438 18.386 124.256 17.876 124.228 17.184C124.204 16.472 124.192 15.766 124.192 15.066C124.196 14.362 124.208 13.606 124.228 12.798C124.256 12.074 124.442 11.556 124.786 11.244C125.13 10.928 125.648 10.77 126.34 10.77C127.02 10.77 127.53 10.926 127.87 11.238C128.214 11.546 128.4 12.05 128.428 12.75C128.452 13.31 128.466 13.838 128.47 14.334C128.478 14.826 128.478 15.304 128.47 15.768C128.466 16.232 128.454 16.7 128.434 17.172C128.398 17.884 128.206 18.4 127.858 18.72C127.514 19.04 127.008 19.2 126.34 19.2ZM126.34 18.858C126.856 18.858 127.256 18.726 127.54 18.462C127.824 18.194 127.98 17.754 128.008 17.142C128.032 16.706 128.046 16.26 128.05 15.804C128.058 15.348 128.058 14.87 128.05 14.37C128.042 13.866 128.028 13.33 128.008 12.762C127.984 12.158 127.826 11.732 127.534 11.484C127.246 11.232 126.848 11.106 126.34 11.106C125.808 11.106 125.398 11.236 125.11 11.496C124.822 11.752 124.668 12.192 124.648 12.816C124.624 13.568 124.61 14.298 124.606 15.006C124.606 15.714 124.62 16.434 124.648 17.166C124.676 17.762 124.83 18.194 125.11 18.462C125.39 18.726 125.8 18.858 126.34 18.858ZM136.562 24.186C135.238 24.186 134.282 23.908 133.694 23.352C133.11 22.792 132.788 21.884 132.728 20.628C132.692 19.804 132.666 18.98 132.65 18.156C132.634 17.332 132.632 16.492 132.644 15.636C132.656 14.776 132.684 13.888 132.728 12.972C132.792 11.664 133.132 10.744 133.748 10.212C134.364 9.68 135.302 9.414 136.562 9.414C137.85 9.414 138.794 9.688 139.394 10.236C139.994 10.78 140.324 11.694 140.384 12.978C140.44 14.274 140.468 15.566 140.468 16.854C140.472 18.138 140.444 19.396 140.384 20.628C140.316 21.936 139.974 22.856 139.358 23.388C138.746 23.92 137.814 24.186 136.562 24.186ZM136.562 23.85C137.702 23.85 138.538 23.602 139.07 23.106C139.606 22.606 139.902 21.772 139.958 20.604C140.018 19.44 140.048 18.23 140.048 16.974C140.052 15.718 140.022 14.392 139.958 12.996C139.906 11.828 139.612 10.996 139.076 10.5C138.544 10 137.706 9.75 136.562 9.75C135.414 9.75 134.572 10 134.036 10.5C133.504 10.996 133.208 11.828 133.148 12.996C133.104 13.948 133.076 14.85 133.064 15.702C133.052 16.554 133.054 17.38 133.07 18.18C133.086 18.98 133.112 19.79 133.148 20.61C133.204 21.766 133.496 22.596 134.024 23.1C134.556 23.6 135.402 23.85 136.562 23.85ZM136.562 23.508C135.53 23.508 134.786 23.278 134.33 22.818C133.874 22.358 133.62 21.612 133.568 20.58C133.532 19.74 133.506 18.916 133.49 18.108C133.474 17.3 133.472 16.48 133.484 15.648C133.5 14.812 133.53 13.936 133.574 13.02C133.626 11.956 133.888 11.202 134.36 10.758C134.832 10.31 135.566 10.086 136.562 10.086C137.554 10.086 138.286 10.308 138.758 10.752C139.23 11.196 139.49 11.95 139.538 13.014C139.578 13.89 139.604 14.742 139.616 15.57C139.632 16.398 139.634 17.224 139.622 18.048C139.61 18.872 139.582 19.716 139.538 20.58C139.486 21.636 139.226 22.388 138.758 22.836C138.29 23.284 137.558 23.508 136.562 23.508ZM136.562 23.166C137.426 23.166 138.056 22.964 138.452 22.56C138.848 22.156 139.07 21.486 139.118 20.55C139.174 19.338 139.202 18.136 139.202 16.944C139.206 15.752 139.178 14.452 139.118 13.044C139.074 12.08 138.846 11.404 138.434 11.016C138.022 10.624 137.398 10.428 136.562 10.428C135.678 10.428 135.04 10.634 134.648 11.046C134.26 11.458 134.042 12.126 133.994 13.05C133.954 13.91 133.926 14.744 133.91 15.552C133.898 16.36 133.898 17.174 133.91 17.994C133.922 18.814 133.95 19.672 133.994 20.568C134.042 21.508 134.266 22.176 134.666 22.572C135.07 22.968 135.702 23.166 136.562 23.166ZM136.562 22.83C135.838 22.83 135.308 22.654 134.972 22.302C134.64 21.95 134.454 21.37 134.414 20.562C134.378 19.682 134.352 18.84 134.336 18.036C134.32 17.228 134.318 16.418 134.33 15.606C134.346 14.794 134.374 13.946 134.414 13.062C134.454 12.226 134.644 11.636 134.984 11.292C135.328 10.944 135.854 10.77 136.562 10.77C137.282 10.77 137.808 10.946 138.14 11.298C138.472 11.65 138.656 12.238 138.692 13.062C138.756 14.498 138.786 15.812 138.782 17.004C138.778 18.192 138.748 19.37 138.692 20.538C138.652 21.362 138.464 21.95 138.128 22.302C137.796 22.654 137.274 22.83 136.562 22.83ZM136.562 22.494C137.138 22.494 137.558 22.34 137.822 22.032C138.086 21.724 138.236 21.22 138.272 20.52C138.328 19.3 138.356 18.116 138.356 16.968C138.36 15.816 138.332 14.52 138.272 13.08C138.24 12.388 138.092 11.886 137.828 11.574C137.568 11.262 137.146 11.106 136.562 11.106C135.974 11.106 135.548 11.262 135.284 11.574C135.024 11.882 134.876 12.382 134.84 13.074C134.8 13.966 134.772 14.812 134.756 15.612C134.744 16.412 134.744 17.212 134.756 18.012C134.772 18.808 134.8 19.654 134.84 20.55C134.876 21.23 135.026 21.724 135.29 22.032C135.558 22.34 135.982 22.494 136.562 22.494ZM150.256 24V13.026C150.256 12.678 150.226 12.316 150.166 11.94C150.11 11.56 149.988 11.206 149.8 10.878C149.616 10.55 149.336 10.284 148.96 10.08C148.588 9.872 148.088 9.768 147.46 9.768C146.752 9.768 146.136 9.918 145.612 10.218C145.092 10.518 144.678 10.932 144.37 11.46H144.274L144.478 9.6H144.898V9.804L144.64 10.692H144.73C145.082 10.244 145.494 9.918 145.966 9.714C146.442 9.51 146.978 9.408 147.574 9.408C148.134 9.408 148.6 9.484 148.972 9.636C149.344 9.784 149.644 9.984 149.872 10.236C150.1 10.488 150.272 10.77 150.388 11.082C150.504 11.394 150.58 11.712 150.616 12.036C150.656 12.36 150.676 12.668 150.676 12.96V24H150.256ZM142.816 24V9.6H143.242V24H142.816ZM144.508 24V13.386C144.508 12.93 144.618 12.514 144.838 12.138C145.058 11.758 145.364 11.454 145.756 11.226C146.148 10.998 146.602 10.884 147.118 10.884C147.534 10.884 147.866 10.952 148.114 11.088C148.366 11.224 148.554 11.404 148.678 11.628C148.806 11.848 148.89 12.092 148.93 12.36C148.974 12.628 148.996 12.892 148.996 13.152V24H148.576V13.17C148.576 12.846 148.54 12.538 148.468 12.246C148.4 11.954 148.258 11.714 148.042 11.526C147.826 11.338 147.5 11.244 147.064 11.244C146.668 11.244 146.31 11.336 145.99 11.52C145.67 11.7 145.416 11.948 145.228 12.264C145.044 12.58 144.952 12.944 144.952 13.356L144.934 24H144.508ZM143.662 24V9.6H144.082L143.998 12.402H144.1C144.356 11.69 144.764 11.134 145.324 10.734C145.884 10.33 146.556 10.13 147.34 10.134C148.256 10.138 148.9 10.394 149.272 10.902C149.648 11.406 149.836 12.12 149.836 13.044V24H149.41V13.086C149.41 12.242 149.244 11.6 148.912 11.16C148.584 10.716 148.018 10.494 147.214 10.494C146.578 10.494 146.026 10.634 145.558 10.914C145.094 11.194 144.734 11.556 144.478 12C144.222 12.444 144.094 12.914 144.094 13.41V24H143.662Z" fill="#4F46E5"/>
<path fill-rule="evenodd" clip-rule="evenodd" d="M14.926 30.2565C23.1694 30.2565 29.852 23.4833 29.852 15.1282C29.852 6.77315 23.1694 0 14.926 0C6.68258 0 0 6.77315 0 15.1282C0 23.4833 6.68258 30.2565 14.926 30.2565Z" fill="#4F46E5"/>
<path fill-rule="evenodd" clip-rule="evenodd" d="M15.4464 22.1153C15.519 22.0274 15.6424 21.9553 15.7207 21.9552C15.9058 21.9549 16.1135 21.5626 16.0179 21.3939C15.9772 21.3221 15.854 21.1631 15.7441 21.0408C15.5043 20.774 15.586 20.4055 15.8552 20.5393C16.1317 20.6767 26.5538 20.684 26.8082 20.5469C27.1507 20.3623 27.0171 20.0119 26.4785 19.682C25.9953 19.3862 24.1045 18.8243 22.4265 18.4778C21.5126 18.2891 21.5126 18.2891 19.7239 18.752C18.74 19.0067 17.7918 19.2345 17.6167 19.2582C17.2984 19.3015 17.2984 19.3015 17.6695 19.1303C17.8737 19.0361 19.1145 18.645 20.4271 18.2613C23.8898 17.2486 24.3514 17.0804 24.3509 16.8306C24.3503 16.4851 21.1469 16.2338 18.8941 16.4027C17.2696 16.5244 16.4343 16.7529 15.8716 17.2292C15.7039 17.3712 15.5416 17.4875 15.5112 17.4875C15.408 17.4877 15.2296 16.4441 15.1624 15.4475C15.1256 14.9024 15.1491 13.8579 15.2145 13.1264C15.5271 9.63347 15.4582 8.01968 14.9964 8.02052C14.5347 8.02135 14.4716 9.63538 14.7968 13.1272C14.8649 13.8584 14.8922 14.9028 14.8574 15.448C14.7938 16.4449 14.6191 17.4892 14.516 17.4893C14.4855 17.4894 14.3229 17.3737 14.1546 17.2323C13.5903 16.7581 12.7541 16.5325 11.1292 16.4168C8.87573 16.2561 5.67331 16.5189 5.67393 16.8644C5.67438 17.1142 6.13652 17.2808 9.60292 18.2809C10.9168 18.6599 12.1591 19.0465 12.3636 19.1399C12.7353 19.3098 12.7353 19.3098 12.4169 19.268C12.2417 19.2451 11.3299 19.0293 10.3906 18.7887C9.45134 18.548 8.5825 18.3511 8.45993 18.3514C8.16142 18.3519 5.72926 18.9366 4.67014 19.2625C3.29793 19.6846 2.65433 20.282 3.23654 20.593C3.48542 20.726 13.9131 20.6777 14.1828 20.5424C14.3086 20.4791 14.3701 20.5162 14.4135 20.6815C14.4514 20.8254 14.4154 20.9288 14.3138 20.9682C13.9308 21.1162 13.9383 21.9584 14.3227 21.9577C14.401 21.9576 14.5246 22.0292 14.5975 22.1168C14.6703 22.2044 14.8615 22.2759 15.0223 22.2756C15.183 22.2753 15.3739 22.2032 15.4464 22.1153Z" fill="white"/>
</svg>
